# xmcd
#
# Track frame offsets:
#	182
#	26950
#	50357
#	77710
#	103620
#	135795
#	161382
#	193602
#
# Disc length: 3043 seconds
#
# Revision: 2
# Processed by: cddbd v1.5.2PL0 Copyright (c) Steve Scherf et al.
# Submitted via: EZCDAudioConverter 1.3.2.1
#
DISCID=5b0be108
DTITLE=Acoustic Guitars - Out of the blue
DYEAR=1999
DGENRE=Blues
TTITLE0=Blue Lotus
TTITLE1=Muro Bukea
TTITLE2=Rites of Passage
TTITLE3=Incitation
TTITLE4=Tages Ti Hai
TTITLE5=Birtes Bulerias
TTITLE6=Light Shadows
TTITLE7=Out of the Blue
EXTD=
EXTT0=
EXTT1=
EXTT2=
EXTT3=
EXTT4=
EXTT5=
EXTT6=
EXTT7=
PLAYORDER=
